<?xml version="1.0" standalone="no"?>
<!DOCTYPE svg PUBLIC "-//W3C//DTD SVG 20010904//EN"
 "http://www.w3.org/TR/2001/REC-SVG-20010904/DTD/svg10.dtd">
<svg version="1.0" xmlns="http://www.w3.org/2000/svg"
 width="183.000000pt" height="183.000000pt" viewBox="0 0 183.000000 183.000000"
 preserveAspectRatio="xMidYMid meet">

<g transform="translate(0.000000,183.000000) scale(0.100000,-0.100000)"
fill="#000000" stroke="none">
<path d="M688 1743 c7 -3 16 -2 19 1 4 3 -2 6 -13 5 -11 0 -14 -3 -6 -6z"/>
<path d="M801 1701 c-17 -31 -13 -76 8 -95 45 -41 107 22 79 81 -17 36 -71 45
-87 14z m65 -26 c8 -34 -1 -55 -25 -55 -25 0 -39 43 -21 65 19 23 39 18 46
-10z"/>
<path d="M933 1708 c-17 -22 -22 -60 -11 -82 20 -39 47 -46 72 -20 20 19 11
40 -10 23 -22 -18 -44 -3 -44 31 0 35 22 49 45 30 20 -17 32 -5 15 15 -15 18
-54 20 -67 3z"/>
<path d="M1035 1655 c-7 -54 -3 -76 12 -62 3 4 8 32 11 62 6 73 -14 73 -23 0z"/>
<path d="M687 1682 c-10 -10 -17 -21 -17 -25 0 -15 34 -37 57 -37 15 0 23 -5
20 -12 -2 -8 -18 -12 -37 -10 -29 2 -31 1 -20 -13 17 -20 59 -16 74 8 15 24
-3 51 -38 55 -14 2 -26 8 -26 14 0 6 11 8 25 6 28 -6 36 16 9 26 -24 9 -29 8
-47 -12z"/>
<path d="M1097 1693 c-2 -4 -8 -24 -12 -43 -3 -19 -9 -42 -11 -52 -3 -12 5
-19 31 -28 46 -15 70 -6 28 11 -43 17 -45 44 -3 36 37 -8 40 10 4 23 -34 13
-21 31 16 23 36 -7 41 12 6 21 -13 3 -31 8 -39 12 -8 3 -17 2 -20 -3z"/>
<path d="M1204 1659 c-3 -6 -1 -15 7 -19 10 -7 10 -16 1 -48 -14 -46 -15 -62
-4 -62 4 0 15 19 23 43 10 25 22 42 32 42 32 0 28 14 -11 34 -28 14 -43 17
-48 10z"/>
<path d="M537 1624 c-16 -9 -26 -21 -24 -27 31 -79 41 -97 49 -97 5 0 7 13 3
30 -7 34 0 37 34 14 15 -11 26 -13 33 -6 7 7 3 14 -12 22 -14 7 -20 18 -17 29
5 22 -10 51 -26 51 -7 -1 -25 -8 -40 -16z m43 -24 c0 -12 -28 -25 -36 -17 -9
9 6 27 22 27 8 0 14 -5 14 -10z"/>
<path d="M1309 1618 c-1 -2 -3 -21 -5 -43 -1 -22 -6 -52 -10 -67 -7 -32 11
-39 21 -8 4 11 19 27 35 35 44 23 50 39 12 32 -29 -6 -32 -4 -32 18 0 19 -16
45 -21 33z"/>
<path d="M436 1557 l-28 -23 28 -47 c16 -26 32 -47 35 -47 12 0 59 41 59 52 0
6 -11 3 -25 -6 -36 -24 -52 -10 -24 20 26 28 18 45 -10 20 -14 -13 -21 -14
-27 -5 -4 7 1 19 14 30 12 9 22 20 22 23 0 12 -15 6 -44 -17z"/>
<path d="M345 1480 c-27 -28 -29 -58 -3 -32 10 10 19 4 44 -25 40 -47 56 -37
19 11 -18 24 -25 42 -20 56 9 29 -7 25 -40 -10z"/>
<path d="M1423 1485 c-29 -20 -38 -62 -18 -91 29 -44 87 -25 101 33 6 21 1 31
-20 50 -32 27 -35 28 -63 8z m55 -47 c2 -19 -3 -30 -18 -38 -26 -14 -40 -5
-40 24 0 49 53 62 58 14z"/>
<path d="M290 1403 c0 -4 14 -22 32 -40 29 -30 31 -35 17 -49 -14 -14 -19 -13
-48 12 -43 36 -55 20 -13 -17 39 -35 60 -34 81 3 15 26 14 29 -19 63 -32 33
-50 43 -50 28z"/>
<path d="M1507 1367 c-20 -18 -37 -38 -37 -44 0 -16 12 -17 28 -1 9 9 16 7 32
-7 16 -14 20 -15 20 -4 0 8 -5 20 -11 26 -8 8 -7 13 2 18 7 5 17 1 25 -10 22
-29 28 -9 8 24 -10 17 -21 31 -24 31 -3 -1 -22 -15 -43 -33z"/>
<path d="M833 1349 c-12 -4 -6 -14 28 -42 65 -55 428 -337 434 -337 3 0 5 83
5 185 0 183 0 185 -22 190 -33 7 -426 11 -445 4z"/>
<path d="M714 1297 c-33 -29 -124 -105 -201 -170 -139 -115 -141 -118 -138
-154 2 -25 11 -44 27 -57 315 -261 401 -327 411 -317 6 6 15 7 22 1 18 -15
450 -25 459 -11 4 7 8 89 8 183 0 132 -3 174 -14 184 -15 15 -5 22 -328 -230
-74 -58 -136 -103 -138 -101 -2 2 -4 72 -4 156 0 96 -4 159 -11 170 -9 14 -8
22 1 31 8 8 12 60 12 178 0 216 -5 223 -106 137z"/>
<path d="M196 1259 c-11 -18 -15 -34 -9 -38 52 -35 85 -52 90 -47 4 4 0 14 -9
23 -13 12 -14 21 -6 39 8 17 8 27 -2 39 -20 24 -44 18 -64 -16z m51 -5 c1 -5
-2 -16 -7 -24 -12 -20 -33 0 -24 24 7 17 25 17 31 0z"/>
<path d="M1591 1235 c-19 -14 -40 -26 -45 -29 -7 -2 -8 -7 -1 -14 13 -13 95
34 95 54 0 19 -9 17 -49 -11z"/>
<path d="M1610 1180 c-54 -21 -68 -46 -20 -35 l33 7 -22 -30 c-38 -54 -28 -62
41 -35 52 20 52 19 43 32 -4 8 -12 8 -26 0 -31 -16 -34 -4 -9 31 30 42 15 52
-40 30z"/>
<path d="M160 1153 c0 -10 12 -27 28 -40 l27 -23 -32 6 c-25 5 -33 2 -42 -14
-9 -18 -6 -22 29 -36 22 -9 47 -16 55 -16 25 0 17 18 -12 28 l-28 10 32 1 c43
1 49 15 16 41 l-28 21 33 -6 c49 -10 39 11 -15 29 -58 20 -63 20 -63 -1z"/>
<path d="M1641 1049 c-24 -5 -46 -10 -48 -13 -11 -10 19 -85 36 -91 27 -8 68
11 76 35 7 22 -3 81 -13 79 -4 -1 -27 -5 -51 -10z m45 -34 c8 -20 -13 -45 -37
-45 -23 0 -46 38 -27 44 7 3 20 7 28 9 25 9 30 8 36 -8z"/>
<path d="M136 994 c-22 -21 -20 -67 2 -87 40 -36 95 -11 95 43 0 53 -61 81
-97 44z m69 -44 c0 -20 -6 -26 -28 -28 -18 -2 -29 2 -33 12 -11 28 4 48 33 44
22 -2 28 -8 28 -28z"/>
<path d="M1600 900 c0 -5 25 -10 55 -10 30 0 55 5 55 10 0 6 -25 10 -55 10
-30 0 -55 -4 -55 -10z"/>
<path d="M1600 861 c0 -6 5 -13 10 -16 16 -10 12 -47 -7 -61 -10 -7 -15 -16
-11 -20 11 -10 111 19 115 33 3 7 -17 26 -43 43 -50 32 -64 36 -64 21z m65
-51 c3 -5 -1 -10 -9 -10 -9 0 -16 5 -16 10 0 6 4 10 9 10 6 0 13 -4 16 -10z"/>
<path d="M200 851 c0 -6 5 -13 10 -16 20 -12 10 -44 -14 -51 -35 -9 -49 4 -42
37 6 33 -8 39 -24 10 -27 -51 35 -99 85 -67 27 18 34 63 13 84 -14 14 -28 16
-28 3z"/>
<path d="M630 455 c0 -44 0 -45 33 -44 23 1 26 3 10 6 -25 5 -32 33 -8 33 8 0
15 5 15 10 0 6 -7 10 -15 10 -23 0 -18 18 8 23 16 3 13 5 -10 6 -33 1 -33 0
-33 -44z"/>
<path d="M706 485 c-3 -9 4 -21 19 -31 14 -9 22 -20 19 -26 -3 -5 -12 -4 -20
3 -17 14 -32 3 -17 -12 17 -17 48 -6 51 18 2 14 -3 23 -17 28 -12 3 -21 11
-21 16 0 6 9 7 21 4 15 -5 19 -4 15 4 -10 16 -43 13 -50 -4z"/>
<path d="M778 493 c7 -2 12 -22 12 -44 0 -21 5 -39 10 -39 6 0 10 18 10 39 0
22 5 42 13 44 6 3 -4 5 -23 5 -19 0 -29 -2 -22 -5z"/>
<path d="M840 455 c0 -40 2 -45 23 -45 29 0 47 18 47 45 0 27 -18 45 -47 45
-21 0 -23 -5 -23 -45z m50 -1 c0 -15 -6 -24 -15 -24 -10 0 -15 10 -15 30 0 22
4 28 15 24 8 -4 15 -17 15 -30z"/>
<path d="M990 485 c-9 -10 -9 -15 -1 -15 6 0 11 -13 11 -30 0 -16 5 -30 10
-30 6 0 10 20 10 45 0 47 -9 56 -30 30z"/>
<path d="M1040 475 c0 -13 8 -29 18 -34 16 -10 16 -10 0 -11 -10 0 -18 -4 -18
-10 0 -20 41 -10 49 12 l8 22 6 -23 c4 -15 12 -22 24 -19 24 5 29 39 7 55 -17
12 -17 13 0 13 9 0 14 5 11 10 -11 18 -37 11 -43 -12 l-5 -22 -8 22 c-12 32
-49 29 -49 -3z m30 -5 c0 -5 -4 -10 -10 -10 -5 0 -10 5 -10 10 0 6 5 10 10 10
6 0 10 -4 10 -10z"/>
<path d="M1167 493 c-13 -12 -7 -43 8 -43 8 0 15 -4 15 -10 0 -5 -7 -10 -15
-10 -8 0 -15 -5 -15 -11 0 -6 10 -9 23 -7 28 4 39 58 11 58 -16 0 -16 1 2 15
19 14 19 14 -2 15 -11 0 -24 -3 -27 -7z"/>
<path d="M920 420 c0 -5 5 -10 11 -10 5 0 7 5 4 10 -3 6 -8 10 -11 10 -2 0 -4
-4 -4 -10z"/>
<path d="M1290 305 c-19 -14 -41 -25 -48 -25 -7 0 -20 -7 -28 -15 -18 -18 -57
-20 -52 -3 3 7 15 15 29 19 l24 7 -26 1 c-28 1 -52 -19 -47 -40 2 -7 -13 -17
-34 -23 -38 -12 -60 -26 -39 -26 7 0 11 -6 8 -14 -3 -8 0 -20 8 -26 10 -8 14
-8 17 1 7 22 41 1 35 -22 -4 -15 -2 -19 9 -15 8 3 14 1 14 -4 0 -5 -10 -10
-22 -12 -19 -3 -20 -4 -6 -10 9 -4 24 -1 34 7 18 12 18 14 1 32 -22 25 -34 83
-17 83 6 0 17 -13 23 -30 6 -16 15 -30 19 -30 11 0 10 7 -7 40 -13 25 -13 29
1 34 12 4 15 2 11 -9 -7 -18 12 -32 22 -16 5 7 15 9 26 5 18 -7 18 -8 -1 -16
-13 -6 -10 -6 11 -2 39 7 40 8 25 44 -11 27 -11 32 6 45 11 8 22 15 27 15 12
0 8 -12 -10 -25 -16 -12 -11 -35 8 -35 6 0 8 4 4 9 -9 16 15 24 30 11 20 -16
19 -5 -1 25 -9 13 -13 29 -9 35 10 17 -8 11 -45 -15z m-50 -55 c-8 -5 -19 -10
-25 -10 -5 0 -3 5 5 10 8 5 20 10 25 10 6 0 3 -5 -5 -10z m20 -14 c0 -3 -4 -8
-10 -11 -5 -3 -10 -1 -10 4 0 6 5 11 10 11 6 0 10 -2 10 -4z m-140 -42 c0 -8
-4 -12 -10 -9 -5 3 -10 10 -10 16 0 5 5 9 10 9 6 0 10 -7 10 -16z"/>
<path d="M530 295 c10 -12 10 -15 -4 -15 -9 0 -16 -8 -16 -19 0 -12 7 -18 18
-17 12 1 17 -6 16 -21 -1 -30 14 -29 28 2 12 26 33 32 58 14 12 -8 10 -9 -8
-4 -32 9 -41 -20 -14 -46 25 -23 32 -24 32 -4 0 8 9 24 20 35 11 11 16 20 10
20 -5 0 -10 9 -10 20 0 11 5 20 10 20 6 0 10 4 10 8 0 5 -14 9 -30 9 -29 0
-29 -1 -13 -19 15 -17 15 -18 -3 -18 -10 0 -37 12 -59 25 -45 28 -63 32 -45
10z m40 -35 c0 -5 -4 -10 -10 -10 -5 0 -10 5 -10 10 0 6 5 10 10 10 6 0 10 -4
10 -10z m50 -50 c0 -5 -2 -10 -4 -10 -3 0 -8 5 -11 10 -3 6 -1 10 4 10 6 0 11
-4 11 -10z"/>
<path d="M733 188 c3 -27 7 -33 25 -31 17 2 22 -3 22 -20 0 -18 2 -19 10 -7 5
8 10 25 10 38 0 16 6 22 21 22 17 0 19 -3 10 -14 -15 -18 -6 -39 24 -53 24
-11 25 -10 25 23 l0 34 48 -2 c43 -1 44 -2 10 -5 -37 -4 -51 -24 -28 -38 6 -3
10 -1 10 6 0 8 7 6 19 -5 19 -17 19 -17 14 3 -4 15 -1 21 11 21 14 0 22 -25
17 -54 -1 -5 4 -13 11 -18 9 -7 6 -8 -9 -5 -27 6 -31 -8 -6 -17 9 -4 23 0 31
8 13 12 13 18 3 30 -8 9 -12 33 -9 56 l4 40 -76 0 c-41 0 -93 3 -114 7 -33 5
-38 4 -33 -9 9 -25 -5 -30 -17 -6 -18 36 -36 34 -33 -4z m124 -34 c-3 -3 -12
-4 -19 -1 -8 3 -5 6 6 6 11 1 17 -2 13 -5z"/>
</g>
</svg>
